# xmcd CD database file
#
# Track frame offsets:
#	150
#	25373
#	44204
#	64050
#	79245
#	104255
#	135349
#	158105
#	194005
#	226305
#	246533
#	269683
#	305474
#
# Disc length: 4292 seconds
#
# Revision: 1
# Processed by: cddbd v1.5.1PL0 Copyright (c) Steve Scherf et al.
# Submitted via: CDex 1.51
#
DISCID=bf10c20d
DTITLE=The Modern Jazz Quartet - The Comedy - Concorde  (The two great albums)
DYEAR=1900
DGENRE=Jazz
TTITLE0=Spanish steps
TTITLE1=Columbine
TTITLE2=Pulcinella
TTITLE3=Pierrot
TTITLE4=La cantatrice
TTITLE5=Harlequin
TTITLE6=Piazza navona
TTITLE7=Gershwin medley
TTITLE8=Ralph's new blues
TTITLE9=All of You
TTITLE10=I'll remember april
TTITLE11=Softly as in a morning sunrise
TTITLE12=Concorde
EXTD=
EXTT0=
EXTT1=
EXTT2=
EXTT3=
EXTT4=
EXTT5=
EXTT6=
EXTT7=
EXTT8=
EXTT9=
EXTT10=
EXTT11=
EXTT12=
PLAYORDER=
